<svg width="32" height="32" viewBox="0 0 32 32" fill="none" xmlns="http://www.w3.org/2000/svg">
<path d="M18.1744 25.3673H17.4911L17.8361 24.772C18.0729 24.3594 17.9308 23.8318 17.5182 23.595C17.1056 23.3582 16.5779 23.5003 16.3412 23.9129L15.9962 24.5082L15.6512 23.9129C15.4144 23.5003 14.8868 23.3582 14.4741 23.595C14.2103 23.7506 14.048 24.0347 14.048 24.3391C14.048 24.4947 14.0885 24.6367 14.163 24.7653L14.508 25.3606H13.818C13.3444 25.3606 12.9589 25.7461 12.9589 26.2197C12.9589 26.6932 13.3444 27.0788 13.818 27.0788H14.508L14.163 27.6741C14.0885 27.8026 14.048 27.9514 14.048 28.1002C14.048 28.4046 14.2103 28.6955 14.4809 28.8443C14.6162 28.9187 14.765 28.9593 14.9071 28.9593C15.2047 28.9593 15.4956 28.8037 15.6579 28.5264L16.0029 27.9311L16.3479 28.5264C16.5847 28.939 17.1123 29.0743 17.525 28.8443C17.9376 28.6076 18.0797 28.0799 17.8429 27.6673L17.4979 27.072H18.1811C18.6546 27.072 19.0402 26.6864 19.0402 26.2129C19.0402 25.7394 18.6546 25.3538 18.1811 25.3538L18.1744 25.3673Z" fill="#B4E5FB"/>
<path d="M18.1744 25.3673H17.4911L17.8361 24.772C18.0729 24.3594 17.9308 23.8318 17.5182 23.595C17.1056 23.3582 16.5779 23.5003 16.3412 23.9129L15.9962 24.5082L15.6512 23.9129C15.4144 23.5003 14.8868 23.3582 14.4741 23.595C14.2103 23.7506 14.048 24.0347 14.048 24.3391C14.048 24.4947 14.0885 24.6367 14.163 24.7653L14.508 25.3606H13.818C13.3444 25.3606 12.9589 25.7461 12.9589 26.2197C12.9589 26.6932 13.3444 27.0788 13.818 27.0788H14.508L14.163 27.6741C14.0885 27.8026 14.048 27.9514 14.048 28.1002C14.048 28.4046 14.2103 28.6955 14.4809 28.8443C14.6162 28.9187 14.765 28.9593 14.9071 28.9593C15.2047 28.9593 15.4956 28.8037 15.6579 28.5264L16.0029 27.9311L16.3479 28.5264C16.5847 28.939 17.1123 29.0743 17.525 28.8443C17.9376 28.6076 18.0797 28.0799 17.8429 27.6673L17.4979 27.072H18.1811C18.6546 27.072 19.0402 26.6864 19.0402 26.2129C19.0402 25.7394 18.6546 25.3538 18.1811 25.3538L18.1744 25.3673Z" fill="#67C8E2"/>
<path fill-rule="evenodd" clip-rule="evenodd" d="M22.4236 9.66017C22.0547 9.66017 21.6929 9.69641 21.3457 9.76888C20.5788 6.73946 17.8514 4.5 14.5959 4.5C10.7472 4.5 7.62911 7.62364 7.62911 11.4793C7.62911 11.9721 7.67975 12.4577 7.78103 12.9288C7.73039 12.9288 7.67975 12.9215 7.62911 12.9215C5.37195 12.9215 3.54163 14.7551 3.54163 17.0163C3.54163 19.2775 5.24896 20.9807 7.40484 21.0966V21.1111H22.033V21.0894C22.1632 21.0966 22.2934 21.1111 22.4236 21.1111C25.5778 21.1111 28.1389 18.5455 28.1389 15.3856C28.1389 12.2258 25.5778 9.66017 22.4236 9.66017Z" fill="url(#paint0_linear_285_28463)"/>
<defs>
<linearGradient id="paint0_linear_285_28463" x1="3.54163" y1="4.5" x2="3.54163" y2="21.1111" gradientUnits="userSpaceOnUse">
<stop stop-color="#9FC7FF"/>
<stop offset="1" stop-color="#9BC1F5"/>
</linearGradient>
</defs>
</svg>
