<svg width="32" height="32" viewBox="0 0 48 48" fill="none" xmlns="http://www.w3.org/2000/svg">
<path fill-rule="evenodd" clip-rule="evenodd" d="M27 8C27 6.34315 28.3431 5 30 5H37C38.6569 5 40 6.34315 40 8C40 9.65685 38.6569 11 37 11H30C28.3431 11 27 9.65685 27 8ZM17.2 21H9C6.79086 21 5 19.2091 5 17C5 14.7909 6.79086 13 9 13H39C41.2091 13 43 14.7909 43 17C43 19.2091 41.2091 21 39 21H36.5C34.8431 21 33.5 22.3431 33.5 24C33.5 25.6569 34.8431 27 36.5 27H39C41.2091 27 43 28.7909 43 31C43 33.2091 41.2091 35 39 35H15C12.7909 35 11 33.2091 11 31C11 28.7909 12.7909 27 15 27H17.2C18.8569 27 20.2 25.6569 20.2 24C20.2 22.3431 18.8569 21 17.2 21ZM8 37C6.34315 37 5 38.3431 5 40C5 41.6569 6.34315 43 8 43H20C21.6569 43 23 41.6569 23 40C23 38.3431 21.6569 37 20 37H8Z" fill="url(#paint0_linear_1087_19366)"/>
<defs>
<linearGradient id="paint0_linear_1087_19366" x1="14" y1="5" x2="14" y2="43" gradientUnits="userSpaceOnUse">
<stop stop-color="#D2E2F7"/>
<stop offset="1" stop-color="#C7D9F0"/>
</linearGradient>
</defs>
</svg>
