<svg width="32" height="32" viewBox="0 0 48 48" fill="none" xmlns="http://www.w3.org/2000/svg">
<path d="M15.7615 38.051H14.7367L15.2542 37.1581C15.6093 36.5391 15.3963 35.7476 14.7773 35.3925C14.1583 35.0374 13.3669 35.2504 13.0117 35.8694L12.4942 36.7623L11.9768 35.8694C11.6216 35.2504 10.8302 35.0374 10.2112 35.3925C9.81547 35.6259 9.57194 36.052 9.57194 36.5087C9.57194 36.742 9.63282 36.9551 9.74444 37.1479L10.2619 38.0408H9.22695C8.51666 38.0408 7.93829 38.6192 7.93829 39.3295C7.93829 40.0398 8.51666 40.6181 9.22695 40.6181H10.2619L9.74444 41.5111C9.63282 41.7039 9.57194 41.9271 9.57194 42.1503C9.57194 42.6069 9.81547 43.0433 10.2213 43.2665C10.4243 43.3781 10.6475 43.439 10.8606 43.439C11.3071 43.439 11.7434 43.2056 11.9869 42.7896L12.5044 41.8967L13.0219 42.7896C13.377 43.4085 14.1685 43.6115 14.7874 43.2665C15.4064 42.9113 15.6195 42.1199 15.2643 41.5009L14.7469 40.608H15.7717C16.482 40.608 17.0604 40.0296 17.0604 39.3193C17.0604 38.6091 16.482 38.0307 15.7717 38.0307L15.7615 38.051Z" fill="#B4E5FB"/>
<path d="M15.7615 38.051H14.7367L15.2542 37.1581C15.6093 36.5391 15.3963 35.7476 14.7773 35.3925C14.1583 35.0374 13.3669 35.2504 13.0117 35.8694L12.4942 36.7623L11.9768 35.8694C11.6216 35.2504 10.8302 35.0374 10.2112 35.3925C9.81547 35.6259 9.57194 36.052 9.57194 36.5087C9.57194 36.742 9.63282 36.9551 9.74444 37.1479L10.2619 38.0408H9.22695C8.51666 38.0408 7.93829 38.6192 7.93829 39.3295C7.93829 40.0398 8.51666 40.6181 9.22695 40.6181H10.2619L9.74444 41.5111C9.63282 41.7039 9.57194 41.9271 9.57194 42.1503C9.57194 42.6069 9.81547 43.0433 10.2213 43.2665C10.4243 43.3781 10.6475 43.439 10.8606 43.439C11.3071 43.439 11.7434 43.2056 11.9869 42.7896L12.5044 41.8967L13.0219 42.7896C13.377 43.4085 14.1685 43.6115 14.7874 43.2665C15.4064 42.9113 15.6195 42.1199 15.2643 41.5009L14.7469 40.608H15.7717C16.482 40.608 17.0604 40.0296 17.0604 39.3193C17.0604 38.6091 16.482 38.0307 15.7717 38.0307L15.7615 38.051Z" fill="#67C8E2"/>
<path d="M27.2615 38.051H26.2367L26.7542 37.1581C27.1093 36.5391 26.8963 35.7476 26.2773 35.3925C25.6583 35.0374 24.8669 35.2504 24.5117 35.8694L23.9942 36.7623L23.4768 35.8694C23.1216 35.2504 22.3302 35.0374 21.7112 35.3925C21.3155 35.6259 21.0719 36.052 21.0719 36.5087C21.0719 36.742 21.1328 36.9551 21.2444 37.1479L21.7619 38.0408H20.7269C20.0167 38.0408 19.4383 38.6192 19.4383 39.3295C19.4383 40.0398 20.0167 40.6181 20.7269 40.6181H21.7619L21.2444 41.5111C21.1328 41.7039 21.0719 41.9271 21.0719 42.1503C21.0719 42.6069 21.3155 43.0433 21.7213 43.2665C21.9243 43.3781 22.1475 43.439 22.3606 43.439C22.8071 43.439 23.2434 43.2056 23.4869 42.7896L24.0044 41.8967L24.5219 42.7896C24.877 43.4085 25.6685 43.6115 26.2874 43.2665C26.9064 42.9113 27.1195 42.1199 26.7643 41.5009L26.2469 40.608H27.2717C27.982 40.608 28.5604 40.0296 28.5604 39.3193C28.5604 38.6091 27.982 38.0307 27.2717 38.0307L27.2615 38.051Z" fill="#B4E5FB"/>
<path d="M27.2615 38.051H26.2367L26.7542 37.1581C27.1093 36.5391 26.8963 35.7476 26.2773 35.3925C25.6583 35.0374 24.8669 35.2504 24.5117 35.8694L23.9942 36.7623L23.4768 35.8694C23.1216 35.2504 22.3302 35.0374 21.7112 35.3925C21.3155 35.6259 21.0719 36.052 21.0719 36.5087C21.0719 36.742 21.1328 36.9551 21.2444 37.1479L21.7619 38.0408H20.7269C20.0167 38.0408 19.4383 38.6192 19.4383 39.3295C19.4383 40.0398 20.0167 40.6181 20.7269 40.6181H21.7619L21.2444 41.5111C21.1328 41.7039 21.0719 41.9271 21.0719 42.1503C21.0719 42.6069 21.3155 43.0433 21.7213 43.2665C21.9243 43.3781 22.1475 43.439 22.3606 43.439C22.8071 43.439 23.2434 43.2056 23.4869 42.7896L24.0044 41.8967L24.5219 42.7896C24.877 43.4085 25.6685 43.6115 26.2874 43.2665C26.9064 42.9113 27.1195 42.1199 26.7643 41.5009L26.2469 40.608H27.2717C27.982 40.608 28.5604 40.0296 28.5604 39.3193C28.5604 38.6091 27.982 38.0307 27.2717 38.0307L27.2615 38.051Z" fill="#67C8E2"/>
<path d="M38.7615 38.051H37.7367L38.2542 37.1581C38.6093 36.5391 38.3963 35.7476 37.7773 35.3925C37.1583 35.0374 36.3669 35.2504 36.0117 35.8694L35.4942 36.7623L34.9768 35.8694C34.6216 35.2504 33.8302 35.0374 33.2112 35.3925C32.8155 35.6259 32.5719 36.052 32.5719 36.5087C32.5719 36.742 32.6328 36.9551 32.7444 37.1479L33.2619 38.0408H32.2269C31.5167 38.0408 30.9383 38.6192 30.9383 39.3295C30.9383 40.0398 31.5167 40.6181 32.2269 40.6181H33.2619L32.7444 41.5111C32.6328 41.7039 32.5719 41.9271 32.5719 42.1503C32.5719 42.6069 32.8155 43.0433 33.2213 43.2665C33.4243 43.3781 33.6475 43.439 33.8606 43.439C34.3071 43.439 34.7434 43.2056 34.9869 42.7896L35.5044 41.8967L36.0219 42.7896C36.377 43.4085 37.1685 43.6115 37.7874 43.2665C38.4064 42.9113 38.6195 42.1199 38.2643 41.5009L37.7469 40.608H38.7717C39.482 40.608 40.0604 40.0296 40.0604 39.3193C40.0604 38.6091 39.482 38.0307 38.7717 38.0307L38.7615 38.051Z" fill="#B4E5FB"/>
<path d="M38.7615 38.051H37.7367L38.2542 37.1581C38.6093 36.5391 38.3963 35.7476 37.7773 35.3925C37.1583 35.0374 36.3669 35.2504 36.0117 35.8694L35.4942 36.7623L34.9768 35.8694C34.6216 35.2504 33.8302 35.0374 33.2112 35.3925C32.8155 35.6259 32.5719 36.052 32.5719 36.5087C32.5719 36.742 32.6328 36.9551 32.7444 37.1479L33.2619 38.0408H32.2269C31.5167 38.0408 30.9383 38.6192 30.9383 39.3295C30.9383 40.0398 31.5167 40.6181 32.2269 40.6181H33.2619L32.7444 41.5111C32.6328 41.7039 32.5719 41.9271 32.5719 42.1503C32.5719 42.6069 32.8155 43.0433 33.2213 43.2665C33.4243 43.3781 33.6475 43.439 33.8606 43.439C34.3071 43.439 34.7434 43.2056 34.9869 42.7896L35.5044 41.8967L36.0219 42.7896C36.377 43.4085 37.1685 43.6115 37.7874 43.2665C38.4064 42.9113 38.6195 42.1199 38.2643 41.5009L37.7469 40.608H38.7717C39.482 40.608 40.0604 40.0296 40.0604 39.3193C40.0604 38.6091 39.482 38.0307 38.7717 38.0307L38.7615 38.051Z" fill="#67C8E2"/>
<path fill-rule="evenodd" clip-rule="evenodd" d="M33.6355 14.4903C33.082 14.4903 32.5395 14.5446 32.0186 14.6533C30.8683 10.1092 26.7772 6.75 21.8939 6.75C16.1208 6.75 11.4437 11.4355 11.4437 17.2189C11.4437 17.9582 11.5197 18.6865 11.6716 19.3931C11.5956 19.3931 11.5197 19.3823 11.4437 19.3823C8.05798 19.3823 5.3125 22.1327 5.3125 25.5245C5.3125 28.9163 7.8735 31.471 11.1073 31.6449V31.6667H33.0495V31.6341C33.2448 31.6449 33.4401 31.6667 33.6355 31.6667C38.3668 31.6667 42.2083 27.8183 42.2083 23.0785C42.2083 18.3386 38.3668 14.4903 33.6355 14.4903Z" fill="url(#paint0_linear_232_24793)"/>
<defs>
<linearGradient id="paint0_linear_232_24793" x1="5.3125" y1="6.75" x2="5.3125" y2="31.6667" gradientUnits="userSpaceOnUse">
<stop stop-color="#9FC7FF"/>
<stop offset="1" stop-color="#9BC1F5"/>
</linearGradient>
</defs>
</svg>
