<svg width="32" height="32" viewBox="0 0 48 48" fill="none" xmlns="http://www.w3.org/2000/svg">
<path fill-rule="evenodd" clip-rule="evenodd" d="M14.279 40.7822C13.7336 42.2887 12.0757 43.0638 10.5704 42.5071C9.06516 41.9612 8.29071 40.3018 8.847 38.7953C9.20696 37.7909 11.1703 36.1752 12.4356 35.2036C12.9483 34.8106 13.7009 35.0835 13.8427 35.7167C14.1918 37.2778 14.6499 39.7778 14.279 40.7822Z" fill="#66AFEB"/>
<path fill-rule="evenodd" clip-rule="evenodd" d="M21.9457 40.7822C21.4003 42.2887 19.7423 43.0638 18.237 42.5071C16.7318 41.9612 15.9573 40.3018 16.5136 38.7953C16.8736 37.7909 18.837 36.1752 20.1023 35.2036C20.6149 34.8106 21.3676 35.0835 21.5094 35.7167C21.8584 37.2778 22.3165 39.7778 21.9457 40.7822Z" fill="#66AFEB"/>
<path fill-rule="evenodd" clip-rule="evenodd" d="M29.6123 40.7822C29.067 42.2887 27.409 43.0638 25.9037 42.5071C24.3985 41.9612 23.624 40.3018 24.1803 38.7953C24.5403 37.7909 26.5037 36.1752 27.7689 35.2036C28.2816 34.8106 29.0342 35.0835 29.176 35.7167C29.5251 37.2778 29.9832 39.7778 29.6123 40.7822Z" fill="#66AFEB"/>
<path fill-rule="evenodd" clip-rule="evenodd" d="M37.279 40.7822C36.7336 42.2887 35.0757 43.0638 33.5704 42.5071C32.0652 41.9612 31.2907 40.3018 31.847 38.7953C32.207 37.7909 34.1703 36.1752 35.4356 35.2036C35.9483 34.8106 36.7009 35.0835 36.8427 35.7167C37.1918 37.2778 37.6499 39.7778 37.279 40.7822Z" fill="#66AFEB"/>
<path fill-rule="evenodd" clip-rule="evenodd" d="M33.6355 14.4903C33.082 14.4903 32.5395 14.5446 32.0186 14.6533C30.8683 10.1092 26.7772 6.75 21.8939 6.75C16.1208 6.75 11.4437 11.4355 11.4437 17.2189C11.4437 17.9582 11.5197 18.6865 11.6716 19.3931C11.5956 19.3931 11.5197 19.3823 11.4437 19.3823C8.05798 19.3823 5.3125 22.1327 5.3125 25.5245C5.3125 28.9163 7.8735 31.471 11.1073 31.6449V31.6667H33.0495V31.6341C33.2448 31.6449 33.4401 31.6667 33.6355 31.6667C38.3668 31.6667 42.2083 27.8183 42.2083 23.0785C42.2083 18.3386 38.3668 14.4903 33.6355 14.4903Z" fill="url(#paint0_linear_232_24790)"/>
<defs>
<linearGradient id="paint0_linear_232_24790" x1="5.3125" y1="6.75" x2="5.3125" y2="31.6667" gradientUnits="userSpaceOnUse">
<stop stop-color="#9FC7FF"/>
<stop offset="1" stop-color="#9BC1F5"/>
</linearGradient>
</defs>
</svg>
