<svg width="32" height="32" viewBox="0 0 32 32" fill="none" xmlns="http://www.w3.org/2000/svg">
<g clip-path="url(#clip0_285_28468)">
<g clip-path="url(#clip1_285_28468)">
<path d="M12.0749 25.9892L13.4571 22.6365C13.5189 22.4867 13.6649 22.3889 13.8269 22.3889H17.9795C18.2643 22.3889 18.4578 22.6781 18.3493 22.9414L17.6194 24.7114C17.5109 24.9747 17.7044 25.2639 17.9892 25.2639H19.217C19.587 25.2639 19.7587 25.723 19.4795 25.9658L13.9819 30.7462C13.6795 31.0092 13.2212 30.7134 13.3363 30.3294L14.3181 27.0566C14.3951 26.8 14.2029 26.5417 13.935 26.5417H12.4447C12.1599 26.5417 11.9664 26.2525 12.0749 25.9892Z" fill="url(#paint0_linear_285_28468)"/>
</g>
</g>
<path fill-rule="evenodd" clip-rule="evenodd" d="M22.4236 9.66017C22.0547 9.66017 21.6929 9.69641 21.3457 9.76888C20.5788 6.73946 17.8514 4.5 14.5959 4.5C10.7472 4.5 7.62911 7.62364 7.62911 11.4793C7.62911 11.9721 7.67975 12.4577 7.78103 12.9288C7.73039 12.9288 7.67975 12.9215 7.62911 12.9215C5.37195 12.9215 3.54163 14.7551 3.54163 17.0163C3.54163 19.2775 5.24896 20.9807 7.40484 21.0966V21.1111H22.033V21.0894C22.1632 21.0966 22.2934 21.1111 22.4236 21.1111C25.5778 21.1111 28.1389 18.5455 28.1389 15.3856C28.1389 12.2258 25.5778 9.66017 22.4236 9.66017Z" fill="rgba(215, 250, 250, 1)"/>
<defs>
<linearGradient id="paint0_linear_285_28468" x1="11.9034" y1="22.3889" x2="11.9034" y2="31.5293" gradientUnits="userSpaceOnUse">
<stop stop-color="#FFC227"/>
<stop offset="1" stop-color="#FFB300"/>
</linearGradient>
<linearGradient id="paint1_linear_285_28468" x1="3.54163" y1="4.5" x2="3.54163" y2="21.1111" gradientUnits="userSpaceOnUse">
<stop stop-color="#9FC7FF"/>
<stop offset="1" stop-color="#9BC1F5"/>
</linearGradient>
<clipPath id="clip0_285_28468">
<rect width="25.5556" height="8.94444" fill="white" transform="translate(3.22217 22.3889)"/>
</clipPath>
<clipPath id="clip1_285_28468">
<rect width="8.94445" height="8.94444" fill="white" transform="translate(11.5277 22.3889)"/>
</clipPath>
</defs>
</svg>
