<svg width="32" height="32" viewBox="0 0 32 32" fill="none" xmlns="http://www.w3.org/2000/svg">
<g clip-path="url(#clip0_285_28469)">
<path fill-rule="evenodd" clip-rule="evenodd" d="M9.19982 27.188C8.83623 28.1924 7.73091 28.7091 6.72741 28.338C5.7239 27.9741 5.2076 26.8678 5.57846 25.8634C5.81843 25.1939 7.12736 24.1167 7.97088 23.469C8.31266 23.207 8.81441 23.3889 8.90894 23.8111C9.14164 24.8518 9.44706 26.5185 9.19982 27.188Z" fill="#66AFEB"/>
<g clip-path="url(#clip1_285_28469)">
<path d="M11.436 25.9892L12.8182 22.6365C12.88 22.4867 13.026 22.3889 13.188 22.3889H17.3406C17.6253 22.3889 17.8189 22.6781 17.7104 22.9414L16.9805 24.7114C16.872 24.9747 17.0655 25.2639 17.3503 25.2639H18.5781C18.9481 25.2639 19.1198 25.723 18.8406 25.9658L13.343 30.7462C13.0406 31.0092 12.5822 30.7134 12.6974 30.3294L13.6792 27.0566C13.7562 26.8 13.564 26.5417 13.2961 26.5417H11.8058C11.521 26.5417 11.3275 26.2525 11.436 25.9892Z" fill="url(#paint0_linear_285_28469)"/>
</g>
<path fill-rule="evenodd" clip-rule="evenodd" d="M25.1721 27.188C24.8085 28.1924 23.7032 28.7091 22.6997 28.338C21.6962 27.9741 21.1799 26.8678 21.5508 25.8634C21.7907 25.1939 23.0996 24.1167 23.9432 23.469C24.2849 23.207 24.7867 23.3889 24.8812 23.8111C25.1139 24.8518 25.4193 26.5185 25.1721 27.188Z" fill="#66AFEB"/>
</g>
<path fill-rule="evenodd" clip-rule="evenodd" d="M22.4236 9.66017C22.0547 9.66017 21.6929 9.69641 21.3457 9.76888C20.5788 6.73946 17.8514 4.5 14.5959 4.5C10.7472 4.5 7.62911 7.62364 7.62911 11.4793C7.62911 11.9721 7.67975 12.4577 7.78103 12.9288C7.73039 12.9288 7.67975 12.9215 7.62911 12.9215C5.37195 12.9215 3.54163 14.7551 3.54163 17.0163C3.54163 19.2775 5.24896 20.9807 7.40484 21.0966V21.1111H22.033V21.0894C22.1632 21.0966 22.2934 21.1111 22.4236 21.1111C25.5778 21.1111 28.1389 18.5455 28.1389 15.3856C28.1389 12.2258 25.5778 9.66017 22.4236 9.66017Z" fill="url(#paint1_linear_285_28469)"/>
<defs>
<linearGradient id="paint0_linear_285_28469" x1="11.2645" y1="22.3889" x2="11.2645" y2="31.5293" gradientUnits="userSpaceOnUse">
<stop stop-color="#FFC227"/>
<stop offset="1" stop-color="#FFB300"/>
</linearGradient>
<linearGradient id="paint1_linear_285_28469" x1="3.54163" y1="4.5" x2="3.54163" y2="21.1111" gradientUnits="userSpaceOnUse">
<stop stop-color="#9FC7FF"/>
<stop offset="1" stop-color="#9BC1F5"/>
</linearGradient>
<clipPath id="clip0_285_28469">
<rect width="25.5556" height="8.94444" fill="white" transform="translate(3.22217 22.3889)"/>
</clipPath>
<clipPath id="clip1_285_28469">
<rect width="8.94444" height="8.94444" fill="white" transform="translate(10.8888 22.3889)"/>
</clipPath>
</defs>
</svg>
