<svg width="32" height="32" viewBox="0 0 48 48" fill="none" xmlns="http://www.w3.org/2000/svg">
<path d="M17.6782 38.051H16.6534L17.1709 37.1581C17.526 36.5391 17.3129 35.7476 16.694 35.3925C16.075 35.0374 15.2836 35.2504 14.9284 35.8694L14.4109 36.7623L13.8934 35.8694C13.5383 35.2504 12.7468 35.0374 12.1279 35.3925C11.7322 35.6259 11.4886 36.052 11.4886 36.5087C11.4886 36.742 11.5495 36.9551 11.6611 37.1479L12.1786 38.0408H11.1436C10.4334 38.0408 9.85498 38.6192 9.85498 39.3295C9.85498 40.0398 10.4334 40.6181 11.1436 40.6181H12.1786L11.6611 41.5111C11.5495 41.7039 11.4886 41.9271 11.4886 42.1503C11.4886 42.6069 11.7322 43.0433 12.138 43.2665C12.341 43.3781 12.5642 43.439 12.7773 43.439C13.2237 43.439 13.6601 43.2056 13.9036 42.7896L14.4211 41.8967L14.9386 42.7896C15.2937 43.4085 16.0852 43.6115 16.7041 43.2665C17.3231 42.9113 17.5362 42.1199 17.181 41.5009L16.6635 40.608H17.6884C18.3987 40.608 18.977 40.0296 18.977 39.3193C18.977 38.6091 18.3987 38.0307 17.6884 38.0307L17.6782 38.051Z" fill="#B4E5FB"/>
<path d="M17.6782 38.051H16.6534L17.1709 37.1581C17.526 36.5391 17.3129 35.7476 16.694 35.3925C16.075 35.0374 15.2836 35.2504 14.9284 35.8694L14.4109 36.7623L13.8934 35.8694C13.5383 35.2504 12.7468 35.0374 12.1279 35.3925C11.7322 35.6259 11.4886 36.052 11.4886 36.5087C11.4886 36.742 11.5495 36.9551 11.6611 37.1479L12.1786 38.0408H11.1436C10.4334 38.0408 9.85498 38.6192 9.85498 39.3295C9.85498 40.0398 10.4334 40.6181 11.1436 40.6181H12.1786L11.6611 41.5111C11.5495 41.7039 11.4886 41.9271 11.4886 42.1503C11.4886 42.6069 11.7322 43.0433 12.138 43.2665C12.341 43.3781 12.5642 43.439 12.7773 43.439C13.2237 43.439 13.6601 43.2056 13.9036 42.7896L14.4211 41.8967L14.9386 42.7896C15.2937 43.4085 16.0852 43.6115 16.7041 43.2665C17.3231 42.9113 17.5362 42.1199 17.181 41.5009L16.6635 40.608H17.6884C18.3987 40.608 18.977 40.0296 18.977 39.3193C18.977 38.6091 18.3987 38.0307 17.6884 38.0307L17.6782 38.051Z" fill="#67C8E2"/>
<path fill-rule="evenodd" clip-rule="evenodd" d="M27.6957 40.7822C27.1503 42.2887 25.4923 43.0638 23.987 42.5071C22.4818 41.9612 21.7073 40.3018 22.2636 38.7953C22.6236 37.7909 24.587 36.1752 25.8523 35.2036C26.3649 34.8106 27.1176 35.0835 27.2594 35.7167C27.6084 37.2778 28.0665 39.7778 27.6957 40.7822Z" fill="#66AFEB"/>
<path fill-rule="evenodd" clip-rule="evenodd" d="M36.3207 40.7822C35.7753 42.2887 34.1173 43.0638 32.612 42.5071C31.1068 41.9612 30.3323 40.3018 30.8886 38.7953C31.2486 37.7909 33.212 36.1752 34.4773 35.2036C34.9899 34.8106 35.7426 35.0835 35.8844 35.7167C36.2334 37.2778 36.6915 39.7778 36.3207 40.7822Z" fill="#66AFEB"/>
<path fill-rule="evenodd" clip-rule="evenodd" d="M33.6355 14.4903C33.082 14.4903 32.5395 14.5446 32.0186 14.6533C30.8683 10.1092 26.7772 6.75 21.8939 6.75C16.1208 6.75 11.4437 11.4355 11.4437 17.2189C11.4437 17.9582 11.5197 18.6865 11.6716 19.3931C11.5956 19.3931 11.5197 19.3823 11.4437 19.3823C8.05798 19.3823 5.3125 22.1327 5.3125 25.5245C5.3125 28.9163 7.8735 31.471 11.1073 31.6449V31.6667H33.0495V31.6341C33.2448 31.6449 33.4401 31.6667 33.6355 31.6667C38.3668 31.6667 42.2083 27.8183 42.2083 23.0785C42.2083 18.3386 38.3668 14.4903 33.6355 14.4903Z" fill="url(#paint0_linear_232_24794)"/>
<defs>
<linearGradient id="paint0_linear_232_24794" x1="5.3125" y1="6.75" x2="5.3125" y2="31.6667" gradientUnits="userSpaceOnUse">
<stop stop-color="#9FC7FF"/>
<stop offset="1" stop-color="#9BC1F5"/>
</linearGradient>
</defs>
</svg>
